<?xml version="1.0" encoding="utf-8"?>
<!-- Generator: Adobe Illustrator 24.1.2, SVG Export Plug-In . SVG Version: 6.00 Build 0)  -->
<svg version="1.1" id="Layer_1" xmlns="http://www.w3.org/2000/svg" xmlns:xlink="http://www.w3.org/1999/xlink" x="0px" y="0px"
	 viewBox="0 0 305 449.9" style="enable-background:new 0 0 305 449.9;" xml:space="preserve">
<style type="text/css">
	.st0{fill:#FFC6A1;}
	.st1{fill:#FDAA8E;}
	.st2{fill:#F3F3F3;}
	.st3{fill:#E4E4E4;}
	.st4{fill:#7BE492;}
	.st5{fill:#45D987;}
	.st6{fill:#FD9B7A;}
	.st7{fill:#4380A0;}
	.st8{fill:#3B7191;}
	.st9{fill:#29CEF6;}
	.st10{fill:#3A7190;}
	.st11{fill:#FFC328;}
</style>
<g>
	<path class="st0" d="M121.6,190.5h61.8V288h-61.8V190.5z"/>
	<path class="st1" d="M152.5,190.5h30.9V288h-30.9V190.5z"/>
	<path class="st2" d="M152.5,288H100v-40.2c0-1.9,1.5-3.4,3.4-3.4h29.5c10.9,0,19.7,8.8,19.7,19.7V288z"/>
	<path class="st3" d="M152.5,288H205v-40.2c0-1.9-1.5-3.4-3.4-3.4h-29.5c-10.9,0-19.7,8.8-19.7,19.7V288z"/>
	<path class="st4" d="M62.4,275.3h180.3V353H62.4V275.3z"/>
	<path class="st5" d="M204,275.3h30.9V353H204V275.3z"/>
	<g>
		<path class="st6" d="M81.4,159.1c0,16.5-10.1,29.8-22.6,29.8s-19.7-15.3-19.7-31.8s7.2-27.8,19.7-27.8S81.4,142.6,81.4,159.1
			L81.4,159.1z"/>
		<path class="st6" d="M223.6,159.1c0,16.5,10.1,29.8,22.6,29.8s19.7-15.3,19.7-31.8s-7.2-27.8-19.7-27.8S223.6,142.6,223.6,159.1
			L223.6,159.1z"/>
	</g>
	<path class="st0" d="M69.8,161.4v-61.2c0-43.1,34.9-78,78-78h9.5c43.1,0,78,34.9,78,78v61.2c0,45.6-37,82.6-82.6,82.6h-0.2
		C106.7,244,69.8,207,69.8,161.4L69.8,161.4z"/>
	<path class="st1" d="M157.3,22.2h-9.5c-3.6,0-7.2,0.3-10.7,0.7c38,5.2,67.3,37.8,67.3,77.2v61.2c0,40.4-29,74-67.3,81.2
		c5,0.9,10.1,1.4,15.3,1.4h0.2c45.6,0,82.6-37,82.6-82.6v-61.2C235.2,57.1,200.3,22.2,157.3,22.2L157.3,22.2z"/>
	<path class="st3" d="M234.9,370.9h43.3v-58.5c0-20.5-16.6-37.1-37.1-37.1h-6.2V370.9z"/>
	<path class="st2" d="M26.8,370.9h43.3v-95.6h-6.2c-20.5,0-37.1,16.6-37.1,37.1V370.9z"/>
	<path class="st7" d="M254.8,75.7c-0.6,43.7-19.6,62.3-19.6,62.3c-43.2-27.4-61.4-81.8-61.4-81.8S157.8,115,69.8,138
		c0,0-18.9-18.6-19.6-62.3C49.8,48.2,85.5,0,152.5,0S255,59.6,254.8,75.7L254.8,75.7z"/>
	<g>
		<path class="st8" d="M152.5,0c-5.6,0-11,0.3-16.2,1c57.5,7.8,87.8,59.8,87.6,74.7c-0.3,20.6-4.7,35.6-9.2,45.8
			c6.1,6.1,12.9,11.7,20.5,16.5c0,0,18.9-18.6,19.6-62.3C255,59.6,219.5,0,152.5,0L152.5,0z"/>
	</g>
	<circle class="st9" cx="101.5" cy="147.2" r="39.1"/>
	<circle class="st9" cx="203.5" cy="147.2" r="39.1"/>
	<path class="st10" d="M203.5,100.6c-23.2,0-42.4,17-46,39.1h-9.9c-3.6-22.2-22.9-39.1-46-39.1c-25.7,0-46.6,20.9-46.6,46.6
		s20.9,46.6,46.6,46.6c23.2,0,42.4-17,46-39.1h9.9c3.6,22.2,22.9,39.1,46,39.1c25.7,0,46.6-20.9,46.6-46.6S229.2,100.6,203.5,100.6z
		 M101.5,178.9c-17.4,0-31.6-14.2-31.6-31.6s14.2-31.6,31.6-31.6c17.4,0,31.6,14.2,31.6,31.6S119,178.9,101.5,178.9z M203.5,178.9
		c-17.5,0-31.6-14.2-31.6-31.6s14.2-31.6,31.6-31.6s31.6,14.2,31.6,31.6S220.9,178.9,203.5,178.9z"/>
	<path class="st7" d="M301,449.9H4c-2.2,0-4-1.8-4-4V320.1c0-13.7,11.1-24.7,24.7-24.7h255.5c13.7,0,24.7,11.1,24.7,24.7v125.8
		C305,448.1,303.2,449.9,301,449.9z"/>
	<path class="st8" d="M280.3,295.4h-30.9c13.7,0,24.7,11.1,24.7,24.7v129.8H301c2.2,0,4-1.8,4-4V320.1
		C305,306.5,293.9,295.4,280.3,295.4z"/>
	<path class="st11" d="M172.8,391.8l-12.2-12.2c-4.5-4.5-11.8-4.5-16.3,0l-12.2,12.2c-4.5,4.5-4.5,11.8,0,16.3l12.2,12.2
		c4.5,4.5,11.8,4.5,16.3,0l12.2-12.2C177.3,403.6,177.3,396.3,172.8,391.8z"/>
	<g>
		<path class="st2" d="M44.4,327.9c-2.9-2.9-7.7-2.9-10.6,0l-13.4,13.4c-2.9,2.9-2.9,7.7,0,10.6l13.3,13.3c1.5,1.5,3.4,2.2,5.3,2.2
			s3.8-0.7,5.3-2.2c2.9-2.9,2.9-7.7,0-10.6l-8-8l8.1-8.1C47.3,335.6,47.3,330.9,44.4,327.9L44.4,327.9z"/>
		<path class="st2" d="M112.6,341.4l-13.4-13.4c-2.9-2.9-7.7-2.9-10.6,0c-2.9,2.9-2.9,7.7,0,10.6l8.1,8.1l-8,8
			c-2.9,2.9-2.9,7.7,0,10.6c1.5,1.5,3.4,2.2,5.3,2.2s3.8-0.7,5.3-2.2l13.3-13.3C115.6,349.1,115.6,344.3,112.6,341.4L112.6,341.4z"
			/>
		<path class="st2" d="M76.3,318.7c-3.9-1.5-8.2,0.5-9.7,4.4l-15.9,41.9c-1.5,3.9,0.5,8.2,4.4,9.7c0.9,0.3,1.8,0.5,2.7,0.5
			c3,0,5.9-1.8,7-4.8l15.9-41.9C82.1,324.5,80.1,320.1,76.3,318.7L76.3,318.7z"/>
	</g>
</g>
</svg>
